<svg width="14" height="23" viewBox="0 0 14 23" fill="none" xmlns="http://www.w3.org/2000/svg">
<path d="M8.17445 23H4.27C3.63222 23 3.11111 22.4863 3.11111 21.8577V19.1667H4.66667V21.4667H7.77778V12.6423C7.77778 12.0137 8.29889 11.5 8.93667 11.5H12.4444V9.2H8.93667C8.29889 9.2 7.77778 8.68633 7.77778 8.05767V4.97567C7.77778 4.347 8.29889 3.83333 8.93667 3.83333H12.4444V1.53333H8.15889C6.23778 1.53333 4.66667 3.082 4.66667 4.97567V8.05C4.66667 8.68633 4.14556 9.2 3.50778 9.2H1.55556V11.5H3.50778C4.14556 11.5 4.66667 12.0137 4.66667 12.6423V17.6333H3.11111V13.0333H1.15889C0.521111 13.0333 0 12.5197 0 11.891V8.81667C0 8.18033 0.521111 7.66667 1.15889 7.66667H3.11111V4.97567C3.11111 2.231 5.37444 0 8.15889 0H12.8333C13.4789 0 14 0.513667 14 1.14233V4.21667C14 4.853 13.4789 5.36667 12.8411 5.36667H9.33333V7.66667H12.8411C13.4789 7.66667 14 8.18033 14 8.809V11.8833C14 12.512 13.4789 13.0257 12.8411 13.0257H9.33333V21.85C9.33333 22.4863 8.81222 23 8.17445 23Z" fill="#333333"/>
</svg>
