<svg width="23" height="23" viewBox="0 0 23 23" fill="none" xmlns="http://www.w3.org/2000/svg">
<path d="M11.5 0C5.15758 0 0 5.15758 0 11.5C0 17.8424 5.15758 23 11.5 23C17.8424 23 23 17.8424 23 11.5C23 5.15758 17.8424 0 11.5 0ZM11.5 1.16162C15.4263 1.16162 18.8414 3.34545 20.5838 6.57475L11.4768 6.9C8.96768 6.9 6.9 8.96768 6.9 11.4768C6.9 12.0576 7.01616 12.5919 7.20202 13.103L1.27778 10.0131C1.99798 5.01818 6.29596 1.16162 11.5 1.16162ZM11.5 14.9384C9.61818 14.9384 8.06162 13.4051 8.06162 11.5C8.06162 9.61818 9.59495 8.06162 11.5 8.06162C13.3818 8.06162 14.9384 9.59495 14.9384 11.5C14.9152 13.3818 13.3818 14.9384 11.5 14.9384ZM1.16162 11.5C1.16162 11.4303 1.16162 11.3374 1.16162 11.2677L9.2 15.4727C9.87374 15.8677 10.6636 16.1 11.5 16.1C12.2434 16.1 12.9404 15.9141 13.5677 15.5889L11.1283 21.8384C5.59899 21.6293 1.16162 17.0758 1.16162 11.5ZM12.3828 21.7919L15.6818 13.4051C15.9606 12.8242 16.1 12.1737 16.1 11.5C16.1 10.0828 15.4495 8.80505 14.4273 7.96869L21.1182 7.73636C21.5828 8.89798 21.8384 10.1758 21.8384 11.5232C21.8384 16.8899 17.6798 21.3505 12.3828 21.7919Z" fill="#333333"/>
</svg>
