<svg width="23" height="23" viewBox="0 0 23 23" fill="none" xmlns="http://www.w3.org/2000/svg">
<path d="M11.5 5.87012C8.40492 5.87012 5.87012 8.40492 5.87012 11.5C5.87012 14.5952 8.40492 17.13 11.5 17.13C14.5952 17.13 17.1033 14.5952 17.1033 11.5C17.1033 8.40492 14.5685 5.87012 11.5 5.87012ZM11.5 15.7959C9.12534 15.7959 7.20422 13.8748 7.20422 11.5C7.20422 9.12534 9.12534 7.20422 11.5 7.20422C13.8481 7.20422 15.7692 9.12534 15.7692 11.5C15.7692 13.8748 13.8481 15.7959 11.5 15.7959Z" fill="#333333"/>
<path d="M17.7703 2.69531C17.1833 2.69531 16.6497 2.90877 16.2494 3.309C15.8492 3.70923 15.6357 4.24288 15.6357 4.82988C15.6357 5.41689 15.8492 5.95053 16.2494 6.35076C16.6497 6.751 17.1833 6.96445 17.7703 6.96445C18.3573 6.96445 18.891 6.751 19.2912 6.35076C19.6647 5.97721 19.9049 5.44357 19.9316 4.85657V4.82988C19.9316 4.26956 19.6914 3.73592 19.3179 3.36237C18.9176 2.93545 18.3573 2.69531 17.7703 2.69531ZM18.3306 5.39021C18.0371 5.68371 17.4768 5.68371 17.1833 5.39021C17.0232 5.23012 16.9432 5.04334 16.9432 4.82988C16.9432 4.61643 17.0232 4.40297 17.1833 4.26956C17.3434 4.10947 17.5302 4.02942 17.7436 4.02942C17.9571 4.02942 18.1705 4.10947 18.3306 4.26956C18.464 4.40297 18.5708 4.61643 18.5708 4.8032C18.5708 5.04334 18.4907 5.2568 18.3306 5.39021Z" fill="#333333"/>
<path d="M16.1694 0H6.80394C3.04176 0 0 3.04176 0 6.80394V16.1961C0 19.9582 3.04176 23 6.80394 23H16.1961C19.9582 23 23 19.9582 23 16.1961V6.80394C22.9733 3.04176 19.9316 0 16.1694 0ZM21.6392 16.1961C21.6392 19.2111 19.1845 21.6659 16.1694 21.6659H6.80394C3.78886 21.6659 1.33411 19.2111 1.33411 16.1961V6.80394C1.33411 3.78886 3.78886 1.33411 6.80394 1.33411H16.1961C19.2111 1.33411 21.6659 3.78886 21.6659 6.80394V16.1961H21.6392Z" fill="#333333"/>
</svg>
