<svg width="18" height="15" viewBox="0 0 18 15" fill="none" xmlns="http://www.w3.org/2000/svg">
<path d="M15.8227 1.02128C14.9941 0.36475 13.93 0.00394781 12.827 0.00394781C11.5531 0.00394781 10.3199 0.489114 9.44414 1.33653C9.28674 1.48909 9.13914 1.65286 9.00061 1.83073C7.92822 0.463807 6.13636 -0.237551 4.36413 0.0726377C2.8935 0.328236 1.73731 1.10226 0.929897 2.37157C-0.209312 4.16365 -0.302547 5.8921 0.654343 7.5092C1.16582 8.37433 1.82941 9.21741 2.68325 10.0865C4.24712 11.6787 6.09824 13.1898 8.50915 14.8406C8.66315 14.9465 8.82811 15 9.00024 15C9.26522 15 9.44414 14.8717 9.53285 14.8088C11.7082 13.3211 13.417 11.9498 14.9111 10.4911C15.7453 9.67691 16.692 8.67621 17.3843 7.42641C17.6809 6.89244 18.0192 6.17373 17.9992 5.35271C17.9546 3.58594 17.2227 2.12863 15.8227 1.02128ZM16.2511 6.85015C15.6347 7.96147 14.765 8.87866 13.9949 9.62991C12.6134 10.9791 11.0337 12.256 8.99797 13.6638C6.78259 12.1288 5.06774 10.7192 3.61825 9.24272C2.83575 8.44628 2.23142 7.68093 1.77053 6.90184C1.04087 5.66904 1.12203 4.4319 2.02645 3.01039C2.63494 2.05307 3.49859 1.47102 4.59401 1.28049C4.80389 1.24362 5.0164 1.22554 5.2259 1.22554C6.5244 1.22554 7.67456 1.91244 8.32418 3.10511L8.43441 3.30431C8.54765 3.50785 8.78092 3.62354 9.01118 3.62896C9.25239 3.62462 9.47019 3.49266 9.57626 3.28515C9.80425 2.83975 10.053 2.49413 10.3565 2.19985C10.9929 1.5849 11.8932 1.23169 12.827 1.23169C13.6322 1.23169 14.4056 1.49307 15.0054 1.96811C16.1212 2.85059 16.6806 3.96771 16.7165 5.38055C16.729 5.91379 16.4885 6.4221 16.2511 6.85015Z" fill="#333333"/>
</svg>
