<svg width="21" height="19" viewBox="0 0 21 19" fill="none" xmlns="http://www.w3.org/2000/svg">
<path d="M18.4598 1.29362C17.4931 0.462017 16.2517 0.00500056 14.9649 0.00500056C13.4786 0.00500056 12.0399 0.619545 11.0182 1.69294C10.8345 1.88618 10.6623 2.09363 10.5007 2.31893C9.24959 0.587489 7.15909 -0.300897 5.09149 0.0920078C3.37575 0.415765 2.02686 1.3962 1.08488 3.00399C-0.244197 5.27396 -0.352972 7.46333 0.7634 9.51166C1.36012 10.6075 2.13431 11.6754 3.13046 12.7763C4.95497 14.793 7.11461 16.7071 9.92734 18.7981C10.107 18.9322 10.2995 19 10.5003 19C10.8094 19 11.0182 18.8374 11.1217 18.7578C13.6596 16.8734 15.6532 15.1364 17.3962 13.2887C18.3695 12.2574 19.474 10.9899 20.2816 9.40679C20.6278 8.73043 21.0224 7.82006 20.999 6.7801C20.947 4.54219 20.0931 2.69626 18.4598 1.29362ZM18.9596 8.67685C18.2405 10.0845 17.2258 11.2463 16.3274 12.1979C14.7156 13.9069 12.8726 15.5243 10.4976 17.3075C7.91302 15.3631 5.91236 13.5776 4.22129 11.7074C3.30837 10.6986 2.60332 9.72918 2.06561 8.74233C1.21435 7.18079 1.30903 5.61375 2.36419 3.81316C3.07409 2.60056 4.08169 1.86329 5.35968 1.62196C5.60453 1.57525 5.85247 1.55235 6.09688 1.55235C7.6118 1.55235 8.95365 2.42242 9.71155 3.93314L9.84014 4.18546C9.97225 4.44327 10.2444 4.58981 10.513 4.59668C10.7945 4.59119 11.0486 4.42404 11.1723 4.16119C11.4383 3.59702 11.7285 3.15923 12.0826 2.78648C12.8251 2.00753 13.8754 1.56014 14.9649 1.56014C15.9042 1.56014 16.8066 1.89122 17.5063 2.49294C18.8081 3.61075 19.4608 5.02576 19.5026 6.81536C19.5171 7.49081 19.2366 8.13466 18.9596 8.67685Z" fill="#666666"/>
</svg>
