<svg width="26" height="23" viewBox="0 0 26 23" fill="none" xmlns="http://www.w3.org/2000/svg">
<path d="M25.7838 2.68733C25.6096 2.56136 25.3791 2.56777 25.2109 2.70351C24.9901 2.88234 24.6308 3.02423 24.244 3.13354C25.2512 1.92806 25.2729 1.12313 25.2621 0.937834C25.2508 0.746704 25.1429 0.577068 24.9805 0.495455C24.8177 0.41337 24.627 0.433392 24.4818 0.545747C23.349 1.42541 22.2206 1.61118 21.5494 1.62988C20.5194 0.577068 19.1814 0 17.758 0C14.71 0 12.2303 2.68428 12.2303 5.98362C12.2303 6.26713 12.2488 6.5507 12.2858 6.83117C7.00333 6.76727 2.7137 1.36045 2.66952 1.30401C2.56646 1.17237 2.40963 1.10206 2.2494 1.11719C2.08917 1.13212 1.94577 1.22934 1.86553 1.37816C0.345271 4.1954 1.36252 6.66978 2.2924 8.08647C2.12784 7.99277 1.99452 7.90043 1.91502 7.83779C1.76729 7.72029 1.57007 7.70079 1.40409 7.78776C1.23835 7.875 1.13243 8.05362 1.12929 8.2509C1.08821 10.9352 2.29791 12.473 3.43504 13.3231C3.28347 13.3077 3.12949 13.368 3.02431 13.4902C2.9061 13.6274 2.86458 13.8212 2.9155 13.9995C3.70099 16.7464 5.63006 17.6796 6.85756 17.9963C4.33368 20.095 0.619826 19.4197 0.578749 19.4119C0.354618 19.3696 0.132898 19.4956 0.0416415 19.7178C-0.0496638 19.9398 0.0128134 20.2 0.193456 20.347C2.85735 22.5188 6.04349 23 8.34516 23C10.086 22.9997 11.3213 22.7244 11.4395 22.6969C23.0976 19.7458 23.4257 8.3384 23.399 6.46883C25.5875 4.29467 25.9296 3.46661 25.9824 3.26187C26.0382 3.04452 25.9584 2.81361 25.7838 2.68733ZM22.5674 5.85891C22.4579 5.9667 22.4 6.12193 22.4098 6.28074C22.4408 6.7855 23.037 18.6812 11.2219 21.6721C11.1683 21.6842 6.47178 22.731 2.40023 20.5764C4.12037 20.5254 6.58709 20.044 8.30551 17.983C8.43524 17.8277 8.46672 17.6052 8.38599 17.4159C8.30625 17.2283 8.13087 17.1079 7.93822 17.1079C7.93655 17.1079 7.93488 17.1079 7.9332 17.1079C7.9087 17.1246 5.32525 17.1049 4.14271 14.4796C4.61906 14.5084 5.20634 14.477 5.67404 14.2469C5.86668 14.1519 5.98052 13.9359 5.95676 13.7106C5.933 13.4856 5.77685 13.3021 5.5693 13.2554C5.43697 13.2256 2.5612 12.5387 2.15883 9.18726C2.59529 9.391 3.1533 9.5578 3.70576 9.46773C3.89555 9.4372 4.05096 9.29142 4.10453 9.09461C4.1581 8.89781 4.09946 8.68534 3.95463 8.55086C3.83165 8.43646 1.13071 5.87226 2.4113 2.56546C3.80139 4.12351 7.91928 8.17291 12.9079 7.8668C13.0542 7.85781 13.1892 7.7793 13.2761 7.65302C13.3629 7.52679 13.3924 7.36593 13.3566 7.21401C13.2622 6.81214 13.2142 6.39804 13.2142 5.98362C13.2142 3.26366 15.2526 1.05103 17.758 1.05103C18.9835 1.05103 20.1331 1.57344 20.9945 2.52237C21.0851 2.62216 21.2093 2.67965 21.3392 2.68197C21.8605 2.68964 22.7178 2.62421 23.6858 2.20953C23.4064 2.58086 22.9962 3.02628 22.3925 3.53256C22.222 3.67577 22.1593 3.9216 22.2383 4.13738C22.3176 4.35368 22.522 4.49021 22.7358 4.46966C22.8504 4.45994 23.435 4.40476 24.0956 4.2521C23.7358 4.66673 23.2424 5.19561 22.5674 5.85891Z" fill="#333333"/>
</svg>
