<svg width="20" height="19" viewBox="0 0 20 19" fill="none" xmlns="http://www.w3.org/2000/svg">
<path fill-rule="evenodd" clip-rule="evenodd" d="M0 15.8706C0 12.7589 2.57198 10.2363 5.74468 10.2363H14.2553C17.428 10.2363 20 12.7589 20 15.8706V17.54C20 18.3467 19.3332 19.0007 18.5106 19.0007H1.48936C0.666809 19.0007 0 18.3467 0 17.54V15.8706ZM5.74468 11.4884C3.27703 11.4884 1.2766 13.4504 1.2766 15.8706V17.54C1.2766 17.6553 1.37186 17.7487 1.48936 17.7487H18.5106C18.6282 17.7487 18.7234 17.6553 18.7234 17.54V15.8706C18.7234 13.4504 16.723 11.4884 14.2553 11.4884H5.74468Z" fill="#666666"/>
<path fill-rule="evenodd" clip-rule="evenodd" d="M10 1.16859C7.90132 1.16859 6.2 2.82537 6.2 4.86911C6.2 6.91285 7.90132 8.56964 10 8.56964C12.0987 8.56964 13.8 6.91285 13.8 4.86911C13.8 2.82537 12.0987 1.16859 10 1.16859ZM5 4.86911C5 2.17998 7.23858 0 10 0C12.7614 0 15 2.17998 15 4.86911C15 7.55825 12.7614 9.73822 10 9.73822C7.23858 9.73822 5 7.55825 5 4.86911Z" fill="#666666"/>
</svg>
