<svg width="28" height="23" viewBox="0 0 28 23" fill="none" xmlns="http://www.w3.org/2000/svg">
<path d="M22.4 0H5.6C2.51254 0 0 2.81432 0 6.27273V16.7273C0 20.1856 2.51254 23 5.6 23H22.4C25.4875 23 28 20.1856 28 16.7273V6.27273C28 2.81432 25.4875 0 22.4 0ZM26.7556 16.7273C26.7556 19.4176 24.8018 21.606 22.4 21.606H5.6C3.19822 21.606 1.24444 19.4176 1.24444 16.7273V6.27273C1.24444 3.58242 3.19822 1.39394 5.6 1.39394H22.4C24.8018 1.39394 26.7556 3.58242 26.7556 6.27273V16.7273ZM9.95556 17.397L19.0742 11.5007L9.95556 5.60292V17.397ZM11.2 8.01725L16.5853 11.5007L11.2 14.9827V8.01725Z" fill="#333333"/>
</svg>
